<svg width="46" height="46" viewBox="0 0 46 46" fill="none" xmlns="http://www.w3.org/2000/svg">
<g filter="url(#filter0_b)">
<ellipse cx="23" cy="22.9462" rx="23" ry="22.9462" fill="#0D1010" fill-opacity="0.11"/>
<path d="M45.5 22.9462C45.5 35.3417 35.4275 45.3923 23 45.3923C10.5725 45.3923 0.5 35.3417 0.5 22.9462C0.5 10.5506 10.5725 0.5 23 0.5C35.4275 0.5 45.5 10.5506 45.5 22.9462Z" stroke="white" stroke-opacity="0.11"/>
</g>
<path d="M24.6666 25.1935H26.75L27.5833 21.8679H24.6666V20.2052C24.6666 19.3488 24.6666 18.5424 26.3333 18.5424H27.5833V15.749C27.3116 15.7132 26.2858 15.6326 25.2025 15.6326C22.94 15.6326 21.3333 17.0102 21.3333 19.5401V21.8679H18.8333V25.1935H21.3333V32.2602H24.6666V25.1935Z" fill="white"/>
<defs>
<filter id="filter0_b" x="-11" y="-11" width="68" height="67.8923" filterUnits="userSpaceOnUse" color-interpolation-filters="sRGB">
<feFlood flood-opacity="0" result="BackgroundImageFix"/>
<feGaussianBlur in="BackgroundImage" stdDeviation="5.5"/>
<feComposite in2="SourceAlpha" operator="in" result="effect1_backgroundBlur"/>
<feBlend mode="normal" in="SourceGraphic" in2="effect1_backgroundBlur" result="shape"/>
</filter>
</defs>
</svg>
