<svg width="46" height="47" viewBox="0 0 46 47" fill="none" xmlns="http://www.w3.org/2000/svg">
<g filter="url(#filter0_b)">
<ellipse cx="23" cy="23.7318" rx="23" ry="22.9462" fill="#0D1010" fill-opacity="0.11"/>
<path d="M45.5 23.7318C45.5 36.1274 35.4275 46.1779 23 46.1779C10.5725 46.1779 0.5 36.1274 0.5 23.7318C0.5 11.3362 10.5725 1.28564 23 1.28564C35.4275 1.28564 45.5 11.3362 45.5 23.7318Z" stroke="white" stroke-opacity="0.11"/>
</g>
<path d="M23 17.0808C24.8113 17.0808 25.0373 17.0875 25.748 17.1207C26.458 17.154 26.9413 17.265 27.3666 17.43C27.8066 17.5989 28.1773 17.8277 28.548 18.1969C28.887 18.5293 29.1493 18.9315 29.3166 19.3754C29.4813 19.7991 29.5933 20.282 29.6266 20.9903C29.658 21.6993 29.6666 21.9248 29.6666 23.7319C29.6666 25.539 29.66 25.7644 29.6266 26.4734C29.5933 27.1818 29.4813 27.664 29.3166 28.0883C29.1498 28.5325 28.8874 28.9347 28.548 29.2669C28.2146 29.605 27.8115 29.8666 27.3666 30.0337C26.942 30.198 26.458 30.3098 25.748 30.343C25.0373 30.3743 24.8113 30.3829 23 30.3829C21.1886 30.3829 20.9626 30.3763 20.252 30.343C19.542 30.3098 19.0586 30.198 18.6333 30.0337C18.1882 29.8671 17.785 29.6054 17.452 29.2669C17.1129 28.9345 16.8506 28.5323 16.6833 28.0883C16.518 27.6646 16.4066 27.1818 16.3733 26.4734C16.342 25.7644 16.3333 25.539 16.3333 23.7319C16.3333 21.9248 16.34 21.6993 16.3733 20.9903C16.4066 20.2813 16.518 19.7998 16.6833 19.3754C16.8501 18.9313 17.1125 18.529 17.452 18.1969C17.7851 17.8585 18.1883 17.5968 18.6333 17.43C19.0586 17.265 19.5413 17.154 20.252 17.1207C20.9626 17.0895 21.1886 17.0808 23 17.0808ZM23 20.4063C22.1159 20.4063 21.2681 20.7567 20.643 21.3804C20.0178 22.004 19.6666 22.8499 19.6666 23.7319C19.6666 24.6139 20.0178 25.4597 20.643 26.0834C21.2681 26.707 22.1159 27.0574 23 27.0574C23.884 27.0574 24.7319 26.707 25.357 26.0834C25.9821 25.4597 26.3333 24.6139 26.3333 23.7319C26.3333 22.8499 25.9821 22.004 25.357 21.3804C24.7319 20.7567 23.884 20.4063 23 20.4063ZM27.3333 20.2401C27.3333 20.0196 27.2455 19.8081 27.0892 19.6522C26.933 19.4963 26.721 19.4087 26.5 19.4087C26.279 19.4087 26.067 19.4963 25.9107 19.6522C25.7544 19.8081 25.6666 20.0196 25.6666 20.2401C25.6666 20.4606 25.7544 20.672 25.9107 20.8279C26.067 20.9839 26.279 21.0714 26.5 21.0714C26.721 21.0714 26.933 20.9839 27.0892 20.8279C27.2455 20.672 27.3333 20.4606 27.3333 20.2401ZM23 21.7366C23.5304 21.7366 24.0391 21.9468 24.4142 22.321C24.7893 22.6952 25 23.2027 25 23.7319C25 24.2611 24.7893 24.7686 24.4142 25.1428C24.0391 25.517 23.5304 25.7272 23 25.7272C22.4695 25.7272 21.9608 25.517 21.5858 25.1428C21.2107 24.7686 21 24.2611 21 23.7319C21 23.2027 21.2107 22.6952 21.5858 22.321C21.9608 21.9468 22.4695 21.7366 23 21.7366Z" fill="white"/>
<defs>
<filter id="filter0_b" x="-11" y="-10.2144" width="68" height="67.8923" filterUnits="userSpaceOnUse" color-interpolation-filters="sRGB">
<feFlood flood-opacity="0" result="BackgroundImageFix"/>
<feGaussianBlur in="BackgroundImage" stdDeviation="5.5"/>
<feComposite in2="SourceAlpha" operator="in" result="effect1_backgroundBlur"/>
<feBlend mode="normal" in="SourceGraphic" in2="effect1_backgroundBlur" result="shape"/>
</filter>
</defs>
</svg>
