<svg width="19" height="19" viewBox="0 0 19 19" fill="none" xmlns="http://www.w3.org/2000/svg">
<path d="M17.5052 3.29989C17.4852 3.27989 17.4852 3.2799 17.4652 3.2599L15.3252 1.37987C15.0252 1.09987 14.6052 0.959887 14.1652 0.999887C13.7652 1.03989 13.4052 1.19987 13.1252 1.47987C13.1052 1.49987 13.0852 1.51988 13.0652 1.53988L10.9452 4.19989C10.3852 4.79989 10.4052 5.71989 10.9852 6.29989C11.0252 6.33989 11.0652 6.37989 11.1052 6.39989L12.1852 7.11991C12.1052 7.49991 11.5452 8.5799 9.56521 10.5599C7.58521 12.5399 6.50521 13.0999 6.12521 13.1799L5.40521 12.0999C5.38521 12.0599 5.34521 12.0199 5.30521 11.9799C4.72521 11.3999 3.80521 11.3999 3.20521 11.9399L0.545217 14.0599C0.525217 14.0799 0.50522 14.0999 0.48522 14.1199C-0.11478 14.7199 -0.15478 15.7199 0.38522 16.2999L2.26521 18.4399C2.28521 18.4599 2.28521 18.4599 2.30521 18.4799C2.66521 18.8399 3.22522 18.9799 3.84522 18.9799C4.94522 18.9799 6.20521 18.5399 6.86521 18.2799C8.14521 17.7799 10.6452 16.5599 13.1252 14.0799C14.9652 12.2399 16.4452 10.0199 17.3252 7.81991C17.7052 6.81991 18.5452 4.33989 17.5052 3.29989ZM11.9852 12.9799C8.28522 16.6799 4.12521 17.6999 3.42521 17.3399L1.60521 15.2599L4.20521 13.1999L4.90521 14.2599C4.92521 14.2799 4.92522 14.2999 4.94522 14.3199C5.18522 14.6199 5.52521 14.7799 5.92521 14.7999C6.30521 14.8199 7.48521 14.8799 10.6652 11.6999C11.4452 10.9199 13.8452 8.5199 13.7652 6.9599C13.7452 6.5599 13.5652 6.21987 13.2852 5.97987C13.2652 5.95987 13.2452 5.93988 13.2252 5.93988L12.1652 5.23988L14.2252 2.63988L16.3052 4.4599C16.7052 5.1199 15.6852 9.27987 11.9852 12.9799Z" fill="#F10048"/>
</svg>
