<svg width="46" height="47" viewBox="0 0 46 47" fill="none" xmlns="http://www.w3.org/2000/svg">
<g filter="url(#filter0_b)">
<ellipse cx="22.9998" cy="23.8387" rx="23" ry="22.9462" fill="#0D1010" fill-opacity="0.11"/>
<path d="M45.4998 23.8387C45.4998 36.2343 35.4273 46.2849 22.9998 46.2849C10.5722 46.2849 0.499756 36.2343 0.499756 23.8387C0.499756 11.4432 10.5722 1.39258 22.9998 1.39258C35.4273 1.39258 45.4998 11.4432 45.4998 23.8387Z" stroke="white" stroke-opacity="0.11"/>
</g>
<path d="M29.7743 19.6198C29.2654 19.8444 28.7256 19.992 28.173 20.0575C28.7555 19.7099 29.1915 19.1629 29.3997 18.5184C28.853 18.843 28.2537 19.0705 27.629 19.1935C27.2094 18.7456 26.6532 18.4486 26.047 18.3485C25.4407 18.2485 24.8183 18.3511 24.2765 18.6404C23.7347 18.9297 23.3039 19.3895 23.0511 19.9483C22.7982 20.507 22.7375 21.1335 22.8783 21.7302C21.7697 21.6748 20.6852 21.3874 19.6952 20.8866C18.7052 20.3859 17.8318 19.6831 17.1317 18.8237C16.8839 19.2483 16.7536 19.7311 16.7543 20.2224C16.7543 21.1868 17.2463 22.0388 17.9943 22.5377C17.5517 22.5238 17.1188 22.4045 16.7317 22.1898V22.2244C16.7318 22.8667 16.9546 23.4892 17.3622 23.9863C17.7699 24.4834 18.3373 24.8246 18.9683 24.952C18.5574 25.0631 18.1265 25.0795 17.7083 24.9999C17.8862 25.5527 18.233 26.0363 18.7001 26.3827C19.1671 26.7292 19.7311 26.9212 20.313 26.932C19.7347 27.3852 19.0725 27.7202 18.3643 27.9178C17.6561 28.1155 16.9158 28.1719 16.1857 28.084C17.4601 28.9017 18.9437 29.3358 20.459 29.3344C25.5877 29.3344 28.3923 25.0957 28.3923 21.4196C28.3923 21.2999 28.389 21.1789 28.3837 21.0605C28.9296 20.6668 29.4007 20.1792 29.775 19.6205L29.7743 19.6198Z" fill="white"/>
<defs>
<filter id="filter0_b" x="-11.0002" y="-10.1074" width="68" height="67.8923" filterUnits="userSpaceOnUse" color-interpolation-filters="sRGB">
<feFlood flood-opacity="0" result="BackgroundImageFix"/>
<feGaussianBlur in="BackgroundImage" stdDeviation="5.5"/>
<feComposite in2="SourceAlpha" operator="in" result="effect1_backgroundBlur"/>
<feBlend mode="normal" in="SourceGraphic" in2="effect1_backgroundBlur" result="shape"/>
</filter>
</defs>
</svg>
