<svg width="46" height="47" viewBox="0 0 46 47" fill="none" xmlns="http://www.w3.org/2000/svg">
<g filter="url(#filter0_b)">
<ellipse cx="22.9999" cy="23.6234" rx="23" ry="22.9462" fill="#0D1010" fill-opacity="0.11"/>
<path d="M45.4999 23.6234C45.4999 36.019 35.4274 46.0695 22.9999 46.0695C10.5724 46.0695 0.499878 36.019 0.499878 23.6234C0.499878 11.2278 10.5724 1.17725 22.9999 1.17725C35.4274 1.17725 45.4999 11.2278 45.4999 23.6234Z" stroke="white" stroke-opacity="0.11"/>
</g>
<g clip-path="url(#clip0)">
<path d="M22.9446 26.1224C22.9069 25.9222 22.7615 25.7635 22.5649 25.7081C22.3683 25.6527 22.161 25.7122 22.0238 25.8631L19.1743 29.0012C19.0703 29.1157 19.019 29.2696 19.0336 29.4234C19.0481 29.5775 19.1275 29.7196 19.2514 29.8131C20.3693 30.6559 21.6941 31.0991 23.0911 31.0991C23.1361 31.0991 23.1813 31.0986 23.2263 31.0977C23.3896 31.0943 23.5424 31.0198 23.6453 30.8935C23.748 30.7673 23.7897 30.6032 23.7596 30.4435L22.9446 26.1224Z" fill="white"/>
<path d="M21.8817 23.0118C21.9852 23.126 22.13 23.1872 22.2779 23.1872C22.3486 23.1872 22.42 23.1732 22.4878 23.1442C22.6974 23.0547 22.8271 22.8422 22.8105 22.6154L22.3729 16.646C22.3622 16.4997 22.292 16.3614 22.1803 16.2661C22.0672 16.1697 21.9237 16.1238 21.7756 16.136C20.3418 16.2559 18.9759 16.8654 17.9293 17.8521C17.7126 18.0564 17.6993 18.4023 17.8997 18.6233L21.8817 23.0118Z" fill="white"/>
<path d="M29.0829 25.559C28.9862 25.4337 28.84 25.3558 28.6816 25.3452L24.4009 25.0605C24.1975 25.0472 24.0076 25.1475 23.9046 25.3226C23.8015 25.4979 23.8065 25.7126 23.9175 25.8828L26.2716 29.494C26.3587 29.6277 26.4995 29.7172 26.6578 29.7397C26.6837 29.7433 26.7096 29.7452 26.7354 29.7452C26.8678 29.7452 26.9967 29.6978 27.0982 29.6102C28.1919 28.6667 28.9146 27.4189 29.1883 26.0014C29.2183 25.8458 29.1799 25.6846 29.0829 25.559Z" fill="white"/>
<path d="M24.2166 24.1259C24.2609 24.1259 24.3057 24.1205 24.35 24.1092L28.5536 23.0403C28.7102 23.0006 28.8411 22.8948 28.9127 22.7502C28.9845 22.6054 28.9893 22.4372 28.9259 22.2884C28.3599 20.9612 27.3901 19.8931 26.1211 19.1998C25.983 19.1243 25.8187 19.1111 25.6704 19.1633C25.5222 19.2154 25.403 19.3284 25.343 19.4733L23.7242 23.3897C23.6467 23.5771 23.6814 23.7888 23.8146 23.9421C23.9178 24.0608 24.0643 24.1259 24.2166 24.1259Z" fill="white"/>
<path d="M21.7203 24.7195C21.7286 24.5212 21.6268 24.336 21.4548 24.2364L17.8908 22.1726C17.7517 22.0922 17.5848 22.076 17.4327 22.1283C17.2805 22.1807 17.1587 22.2964 17.0988 22.4457C16.5623 23.7831 16.4941 25.2209 16.9016 26.6038C16.9474 26.7592 17.0587 26.8863 17.2067 26.9524C17.2788 26.9847 17.356 27.0009 17.433 27.0009C17.5139 27.0009 17.5946 26.9831 17.6697 26.9477L21.4152 25.1789C21.5951 25.094 21.7119 24.9179 21.7203 24.7195Z" fill="white"/>
</g>
<defs>
<filter id="filter0_b" x="-11.0001" y="-10.3228" width="68" height="67.8923" filterUnits="userSpaceOnUse" color-interpolation-filters="sRGB">
<feFlood flood-opacity="0" result="BackgroundImageFix"/>
<feGaussianBlur in="BackgroundImage" stdDeviation="5.5"/>
<feComposite in2="SourceAlpha" operator="in" result="effect1_backgroundBlur"/>
<feBlend mode="normal" in="SourceGraphic" in2="effect1_backgroundBlur" result="shape"/>
</filter>
<clipPath id="clip0">
<rect width="16" height="15.9625" fill="white" transform="translate(14.9999 15.6421)"/>
</clipPath>
</defs>
</svg>
